<svg id="Calque_1" data-name="Calque 1" xmlns="http://www.w3.org/2000/svg" viewBox="0 0 362.39 306.34"><defs><style>.cls-1{fill:#fff;}</style></defs><path d="M403.75,397.66H405c6.2,0,12.39-.08,18.59,0a19.53,19.53,0,0,1,6,1c6.75,2.38,9.25,8.87,8.53,15a10.94,10.94,0,0,1-4.38,8c.05.14.05.24.1.28,7.05,5,6.05,14.74.35,19.95a14.72,14.72,0,0,1-10,4c-6.64.09-13.27,0-19.91,0a4.88,4.88,0,0,1-.53-.07ZM414,436.18c3.41,0,6.75.13,10.08-.05a4.48,4.48,0,0,0,3.86-3.74c.57-3.1-1.62-5.64-5-5.72-2.48-.05-4.95,0-7.42,0H414ZM414,417c3.28,0,6.51.13,9.72-.05,2.32-.13,3.89-2.24,3.92-4.7s-1.44-4.59-3.57-4.72c-3.32-.21-6.67-.06-10.07-.06Z" transform="translate(-116.09 -267.92)"/><path d="M233.71,397.81h10v1.37c0,9.76,0,19.51,0,29.26,0,3.46,1.28,6.05,4.52,7.47a9.27,9.27,0,0,0,9.86-1.54,7.2,7.2,0,0,0,2.14-5.41q0-14.86,0-29.74v-1.38h10.09v1.3c0,9.88-.08,19.75,0,29.62.12,11.2-8.25,17-16.85,17.52a19.49,19.49,0,0,1-14.4-4.41,14.58,14.58,0,0,1-5.44-11.19c-.15-10.83-.07-21.66-.07-32.49A1.79,1.79,0,0,1,233.71,397.81Z" transform="translate(-116.09 -267.92)"/><path d="M396.52,446c-3.71,0-7.22,0-10.74,0a1.39,1.39,0,0,1-1-.77,37.26,37.26,0,0,1-1.47-3.66,1,1,0,0,0-1.14-.77q-7.54,0-15.1,0a1.14,1.14,0,0,0-1.28.92c-.41,1.21-.87,2.41-1.37,3.58-.13.3-.51.7-.78.7-3.58.05-7.17,0-10.92,0,.16-.47.24-.81.37-1.12q10.28-24,20.58-48c.16-.37.58-.86.89-.87s.77.47.92.84q10.37,24.08,20.67,48.17C396.29,445.29,396.37,445.55,396.52,446Zm-26.59-14.35h9.29c-1.51-4.11-3-8.11-4.58-12.4Z" transform="translate(-116.09 -267.92)"/><path d="M280.51,432.79c.73.4,1.3.73,1.9,1a22.88,22.88,0,0,0,13.18,2.65,5.52,5.52,0,0,0,1.39-.33c1.73-.68,3.12-1.74,3.3-3.73a4.35,4.35,0,0,0-2.61-4.47c-1.2-.61-2.51-1-3.75-1.56a74.65,74.65,0,0,1-7.23-3.42c-4.59-2.69-7.22-6.64-6.68-12.17.58-5.87,3.57-10.09,9.11-12.29,4.41-1.75,8.94-1.35,13.44-.34,1.47.33,2.91.79,4.44,1.22-.43,3.14-.85,6.16-1.27,9.2a52.65,52.65,0,0,0-5.87-1.49,21.75,21.75,0,0,0-5.81-.12,4.27,4.27,0,0,0-3.72,3.85,4.22,4.22,0,0,0,2.27,4.62c1.32.74,2.81,1.14,4.16,1.81a65.12,65.12,0,0,1,8.45,4.42c8.83,6.15,6.05,18-1.23,22.22a19.73,19.73,0,0,1-10.58,2.49,34.32,34.32,0,0,1-12.88-2.93c-1-.4-1.31-.8-1.13-1.91C279.85,438.71,280.13,435.85,280.51,432.79Z" transform="translate(-116.09 -267.92)"/><path d="M446.73,433.17a70.37,70.37,0,0,0,8.11,2.83,27.36,27.36,0,0,0,7.24.4,4.74,4.74,0,0,0,4.43-3.76c.3-2.07-.83-3.89-3.14-5-.65-.31-1.33-.54-2-.8-1.81-.73-3.66-1.39-5.43-2.21a26.09,26.09,0,0,1-3.75-2.11c-6.75-4.59-8-13-3-19.47a14.21,14.21,0,0,1,8.94-5.36c5.17-.95,10.14.07,15.11,1.74-.43,3.09-.84,6.12-1.26,9.15a52.65,52.65,0,0,0-5.87-1.49,22.25,22.25,0,0,0-5.82-.12,4.29,4.29,0,0,0-3.73,4,4.23,4.23,0,0,0,2.28,4.51,17.26,17.26,0,0,0,2.94,1.32,38.73,38.73,0,0,1,9.72,4.84c8.73,6.31,6.05,18.27-1.58,22.46a20,20,0,0,1-10.28,2.32,34.41,34.41,0,0,1-13-3c-.84-.36-1.19-.73-1-1.75.44-2.75.71-5.54,1.06-8.31C446.69,433.2,446.76,433.06,446.73,433.17Z" transform="translate(-116.09 -267.92)"/><path d="M224.43,434.14l1.38,10.18c-2.77.54-5.43,1.25-8.13,1.55a27.68,27.68,0,0,1-16.82-3.06,23.69,23.69,0,0,1-11.93-23.94c1.64-13.06,11.1-21.34,24.44-21.73a28.86,28.86,0,0,1,10.14,1.42c.8.27,1.16.62,1,1.53-.41,2.88-.73,5.77-1.08,8.59-2-.55-3.85-1.22-5.78-1.57a17.4,17.4,0,0,0-7.95.4c-6.68,1.92-10.62,7.95-10.14,15.49a14,14,0,0,0,12,13,22.54,22.54,0,0,0,11.52-1.37Z" transform="translate(-116.09 -267.92)"/><path d="M169.64,445.92h-10.1v-1.31c0-6.28,0-12.55,0-18.83a4.81,4.81,0,0,0-.89-2.87q-8-11.88-15.93-23.8c-.24-.36-.47-.73-.82-1.27.51,0,.87-.08,1.24-.08,3.32,0,6.63,0,10,0a1.75,1.75,0,0,1,1.73.94c2.95,4.79,6,9.55,8.95,14.32.23.37.47.73.79,1.22.3-.42.54-.76.76-1.11,3-4.8,6-9.6,9-14.43a1.74,1.74,0,0,1,1.72-.95c3.35,0,6.71,0,10.07,0,.34,0,.68,0,1.17.06-.27.45-.46.78-.68,1.1-5.44,8.13-10.91,16.25-16.32,24.4a4.11,4.11,0,0,0-.65,2.09c0,6.35,0,12.71,0,19.06Z" transform="translate(-116.09 -267.92)"/><path d="M117.64,397.81h10.13v38.48h16.09v9.62H117.64Z" transform="translate(-116.09 -267.92)"/><path d="M322.22,397.81H332.3v38.45h16.13v9.65H322.22Z" transform="translate(-116.09 -267.92)"/><path d="M405.4,386.55c.08-.74.13-1.28.19-1.87h5.91v2.61c.54,0,1,.06,1.39.06q30.27,0,60.56,0a1.6,1.6,0,0,0,1.72-.88,1.49,1.49,0,0,1,2.1-.59,2.91,2.91,0,0,1,1.19,1.73,1.55,1.55,0,0,1-1.3,1.76,1.64,1.64,0,0,1-2.07-.77,1.37,1.37,0,0,0-1.49-.84q-30.41,0-60.8,0h-1.19c0,.95-.08,1.8-.12,2.75h-5.9l-.17-1.72c-3.44-.28-6.81-.58-10.2-.82-1.55-.12-3.1-.2-4.66-.2q-23.51,0-47,0c-.76,0-1.32,0-1.71.88a1.63,1.63,0,0,1-2.09.72,1.56,1.56,0,0,1-1.24-1.81,3,3,0,0,1,1.24-1.68,1.49,1.49,0,0,1,2.08.64,1.43,1.43,0,0,0,1.5.84q22.19,0,44.37,0a3.66,3.66,0,0,0,1.07-.14c-24.69-4.47-45.94-15.48-63.55-33.33s-28.33-39.26-32.55-64v.94q0,23.39,0,46.77c0,.71,0,1.25.84,1.61a1.63,1.63,0,0,1,.77,2.07,1.86,1.86,0,0,1-3.57,0,1.62,1.62,0,0,1,.76-2.07,1.4,1.4,0,0,0,.8-1.53c0-17.23,0-34.46-.05-51.68,0-3.42-.46-6.84-.72-10.38h-2.83v-7.72h7.65v7.6l-2.58.13c1.4,29.09,11.77,54.34,31.88,75.31C347.3,373.57,374.06,385.17,405.4,386.55Zm-115-116.93v4.13h4.1v-4.13Z" transform="translate(-116.09 -267.92)"/><path d="M189.08,456l-.12,1.76H183v-2.65c-.58,0-1-.06-1.44-.06H121.05c-.69,0-1.26,0-1.64.78a1.51,1.51,0,0,1-2.16.7,1.83,1.83,0,0,1,0-3.41,1.52,1.52,0,0,1,2.16.69c.37.79.9.83,1.61.83H183v-2.72h6l.13,1.74c2.74.19,5.44.48,8.14.56,6,.19,12,.37,18,.4,11.95.06,23.9,0,35.85,0,.71,0,1.23-.06,1.61-.84a1.52,1.52,0,0,1,2.16-.68,1.85,1.85,0,0,1,0,3.42,1.55,1.55,0,0,1-2.16-.72,1.25,1.25,0,0,0-1.28-.78c-15.31,0-30.61,0-46,.11,24.67,4.4,46,15.33,63.62,33.1s28.47,39.17,32.79,63.91v-1.21q0-23.07,0-46.16c0-.71-.06-1.23-.83-1.62a1.58,1.58,0,0,1-.71-2.07,1.86,1.86,0,0,1,3.57.08,1.6,1.6,0,0,1-.81,2c-.77.35-.79.85-.79,1.52,0,17.22,0,34.45,0,51.68,0,3.41.49,6.83.77,10.39h2.79v7.48h-7.58v-7.41l2.33-.11C300,510.93,252.79,457.51,189.08,456ZM300,568.63v4.12h4.11v-4.12Z" transform="translate(-116.09 -267.92)"/><path d="M418.36,467.36h-1.5V461.6a17.76,17.76,0,0,0,0-1.79,2.11,2.11,0,0,0-2.15-2,2,2,0,0,0-2.17,1.92c-.12,1.87-.08,3.75-.11,5.62,0,.63,0,1.27,0,2H411v-10.9l1.93.78c1.87-1.19,3.21-1.05,4.78.6a13.17,13.17,0,0,1,2.9-1.25,3,3,0,0,1,3.67,2.75c.15,2.66,0,5.32,0,8.05h-1.42c0-2.16,0-4.27,0-6.38a6.63,6.63,0,0,0-.12-1.54,2,2,0,0,0-2.21-1.61c-1.05.09-1.91.57-2,1.7-.13,1.59-.11,3.18-.14,4.78C418.35,465.29,418.36,466.28,418.36,467.36Z" transform="translate(-116.09 -267.92)"/><path d="M324.2,457.6v-5h1.43v15.05l-2-.82a3.76,3.76,0,0,1-3.29.68,3.47,3.47,0,0,1-2.79-3.07,20.32,20.32,0,0,1,0-4.41c.34-3.14,3.36-4.48,6-2.78ZM318.9,462c0,.68,0,1.36.12,2a2.39,2.39,0,0,0,2.56,2.17,2.29,2.29,0,0,0,2.43-2.15,25,25,0,0,0,0-4.06,2.34,2.34,0,0,0-2.41-2.19A2.44,2.44,0,0,0,319,460C318.93,460.65,318.94,461.34,318.9,462Z" transform="translate(-116.09 -267.92)"/><path d="M428.93,466.48v5l-1.41.07V456.37l1.86.89c2.44-1.89,6.23-.59,6.3,3.46a24.85,24.85,0,0,1-.08,3.23c-.36,3.23-3.33,4.62-6.06,2.88Zm5.28-4.44c0-.64,0-1.33-.12-2a2.44,2.44,0,0,0-2.52-2.23,2.37,2.37,0,0,0-2.48,2.26,24.56,24.56,0,0,0,0,3.93,2.3,2.3,0,0,0,2.49,2.21A2.4,2.4,0,0,0,434.1,464C434.18,463.35,434.17,462.71,434.21,462Z" transform="translate(-116.09 -267.92)"/><path d="M386,457.64v-5.08h1.39v15l-1.68-.69.09-.36c-.26.17-.5.36-.77.52a3.66,3.66,0,0,1-5.51-2.25,15.2,15.2,0,0,1-.1-5.21c.45-2.87,3.41-4,5.89-2.45Zm0,4.42a21.17,21.17,0,0,0-.23-2.25,2.36,2.36,0,0,0-2.46-2,2.25,2.25,0,0,0-2.42,2,21,21,0,0,0,0,4.27,2.22,2.22,0,0,0,2.34,2.1,2.32,2.32,0,0,0,2.56-2A18.85,18.85,0,0,0,386,462.06Z" transform="translate(-116.09 -267.92)"/><path d="M345.59,467.65l-2-.83a3.67,3.67,0,0,1-3.21.64,3.24,3.24,0,0,1-2.46-3.15,3.06,3.06,0,0,1,2.39-3.17,9.86,9.86,0,0,1,1.89-.22c.59,0,1.18,0,1.75,0,.4-2.86-1.08-3.59-4.82-2.47l-.55-1.08a5.91,5.91,0,0,1,4.53-.7,3.16,3.16,0,0,1,2.44,3C345.64,462.22,345.59,464.74,345.59,467.65ZM344,462.12c-.95.05-1.94,0-2.91.18a1.84,1.84,0,0,0-1.61,2,1.93,1.93,0,0,0,1.85,1.85C343.36,466.39,344.46,464.8,344,462.12Z" transform="translate(-116.09 -267.92)"/><path d="M308.21,458.51l-.56-1.15a5.88,5.88,0,0,1,4.53-.7,3.17,3.17,0,0,1,2.43,3.06c.08,2.51,0,5,0,7.86l-2-.75a3.6,3.6,0,0,1-3.33.59A3.2,3.2,0,0,1,307,464.3a2.93,2.93,0,0,1,2.27-3.11,29.36,29.36,0,0,1,3.77-.4C313.38,458,311.71,457.17,308.21,458.51Zm5,3.67c-.9,0-1.57,0-2.24,0a5,5,0,0,0-.95.12,2,2,0,0,0,.39,3.9,2.27,2.27,0,0,0,2.57-1.66A19.67,19.67,0,0,0,313.19,462.18Z" transform="translate(-116.09 -267.92)"/><path d="M376.79,462.37h-6.52c-.52,3.39,1.19,4.4,5.46,3.24l.54,1.1a6.29,6.29,0,0,1-5.1.58,3.08,3.08,0,0,1-2.25-2.56,23.75,23.75,0,0,1,0-5.33,3.5,3.5,0,0,1,3.81-2.92,3.77,3.77,0,0,1,3.81,3A25.83,25.83,0,0,1,376.79,462.37ZM370.23,461h4.86c.06-2-.87-3.22-2.44-3.21S370.24,458.92,370.23,461Z" transform="translate(-116.09 -267.92)"/><path d="M468.17,471.43l.27-1.08c2.81-.2,3.71-1.65,2.74-4.33-1.11-3.07-2.21-6.14-3.36-9.33h1.55l3,8.69c.8-2.73,1.57-5.16,2.2-7.63.28-1.06.73-1.41,1.84-1L473.61,466c-.34,1.11-.66,2.22-1.05,3.31C471.86,471.31,470.39,472,468.17,471.43Z" transform="translate(-116.09 -267.92)"/><path d="M350.19,467.36h-1.41V456.65l1.29-.06.22.92c.19-.11.33-.18.45-.26,2.56-1.71,5.48-.49,5.74,2.55.21,2.49,0,5,0,7.55h-1.45c0-1.92,0-3.79,0-5.65,0-.6,0-1.2-.06-1.8a2.38,2.38,0,0,0-4.67-.27,21.38,21.38,0,0,0-.13,3.1C350.18,464.24,350.19,465.75,350.19,467.36Z" transform="translate(-116.09 -267.92)"/><path d="M403.18,457c-.29.74-.42,1.07-.58,1.46a18.36,18.36,0,0,0-2.08-.56,2.68,2.68,0,0,0-1.62.05,2.43,2.43,0,0,0-1.19,1.51c0,.46.58,1.15,1.09,1.45a7.12,7.12,0,0,0,2,.46,3.11,3.11,0,0,1,2.73,3,3.18,3.18,0,0,1-2.82,3.08,7.22,7.22,0,0,1-4.69-.89l.41-1.14a11.92,11.92,0,0,0,1.85.54,5.16,5.16,0,0,0,2.34.05,2.64,2.64,0,0,0,1.35-1.57c.24-.83-.41-1.42-1.21-1.66s-1.41-.29-2.1-.47a2.91,2.91,0,0,1,.4-5.79A30.11,30.11,0,0,1,403.18,457Z" transform="translate(-116.09 -267.92)"/><path d="M327.89,456.71c1.15-.31,1.64,0,1.93,1.06a60,60,0,0,0,2.5,7.26c.76-2.4,1.57-4.79,2.24-7.22.3-1.09.8-1.48,1.94-1.07-1.13,3.38-2.25,6.78-3.43,10.16-.08.25-.61.48-.92.47a1.11,1.11,0,0,1-.86-.55C330.13,463.47,329,460.11,327.89,456.71Z" transform="translate(-116.09 -267.92)"/><path d="M454.7,465.43l.68,1.06c-1.69,1-3.34,1.5-5.17.73s-2.21-2.21-2.35-3.87a16.62,16.62,0,0,1,0-2.64c.14-1.66.65-3.17,2.35-3.88a5.31,5.31,0,0,1,5,.63l-.64,1.11c-.54-.21-1-.42-1.49-.57-2-.59-3.37.29-3.57,2.31a17.43,17.43,0,0,0,0,3.23c.19,2.23,1.62,3.15,3.75,2.46C453.68,465.85,454.15,465.64,454.7,465.43Z" transform="translate(-116.09 -267.92)"/><path d="M366.59,457.56l-.58,1a19.66,19.66,0,0,0-1.86-.64A2.38,2.38,0,0,0,361,460a15.71,15.71,0,0,0-.06,3.69c.22,2.17,1.65,3,3.73,2.34.49-.16,1-.36,1.51-.58l.68,1.06c-1.69,1-3.35,1.51-5.17.74s-2.25-2.28-2.36-4a15.28,15.28,0,0,1,.05-2.87C359.88,456.65,363.47,455.23,366.59,457.56Z" transform="translate(-116.09 -267.92)"/><path d="M466.51,466l.46,1c-2.25,1.29-4.05.31-4.07-2.2,0-2.27,0-4.54,0-6.86l-1.42-.21-.06-1.07,1.42-.17.11-2.17h1.39v2.18l2,.12v1.12l-1.9.15c0,2.49-.09,4.95,0,7.4C464.53,466.64,465.63,466.14,466.51,466Z" transform="translate(-116.09 -267.92)"/><path d="M438.56,452.54h1.52v1.28c0,3.67,0,7.34,0,11,0,.57-.29,1.32.74,1.47.16,0,.24.66.35,1-1.6.58-2.57-.06-2.6-1.72-.05-3,0-6,0-9Z" transform="translate(-116.09 -267.92)"/><path d="M406.21,456.67h1.41v10.64h-1.41Z" transform="translate(-116.09 -267.92)"/><path d="M444.86,467.37h-1.32V456.69h1.32Z" transform="translate(-116.09 -267.92)"/><path d="M459.26,467.36h-1.32v-10.7l1.32-.06Z" transform="translate(-116.09 -267.92)"/><path d="M460,454.14c-.69.39-1.08.81-1.4.75s-.62-.54-.93-.84c.34-.31.66-.79,1-.85S459.36,453.65,460,454.14Z" transform="translate(-116.09 -267.92)"/><path d="M445.6,454c-.66.44-1.06.91-1.35.85s-.66-.58-1-.9c.32-.28.62-.76,1-.8S444.93,453.6,445.6,454Z" transform="translate(-116.09 -267.92)"/><path d="M408.26,454c-.64.45-1,.89-1.31.86s-.64-.49-.95-.77c.31-.33.57-.83.93-.93S407.6,453.59,408.26,454Z" transform="translate(-116.09 -267.92)"/><path class="cls-1" d="M290.42,269.62h4.1v4.13h-4.1Z" transform="translate(-116.09 -267.92)"/><path class="cls-1" d="M300,568.63h4.11v4.12H300Z" transform="translate(-116.09 -267.92)"/><path class="cls-1" d="M375.09,461h-4.86" transform="translate(-116.09 -267.92)"/></svg>