<?xml version="1.0" encoding="utf-8"?>
<!-- Generator: Adobe Illustrator 19.0.0, SVG Export Plug-In . SVG Version: 6.00 Build 0)  -->
<svg version="1.1" id="Calque_1" xmlns="http://www.w3.org/2000/svg" xmlns:xlink="http://www.w3.org/1999/xlink" x="0px" y="0px"
	 viewBox="-124 371.7 362.4 75.6" style="enable-background:new -124 371.7 362.4 75.6;" xml:space="preserve">
<style type="text/css">
	.st0{fill:#384364;}
	.st1{fill:#FFFFFF;}
</style>
<g id="XMLID_1_">
	<g>
		<path class="st0" d="M233.5,441.7c-0.3,1.1-0.7,2.2-1.1,3.3c-0.7,2-2.2,2.7-4.4,2.1l0.3-1.1c2.8-0.2,3.7-1.6,2.7-4.3
			c-1.1-3.1-2.2-6.1-3.4-9.3h1.6l3,8.7c0.8-2.7,1.6-5.2,2.2-7.6c0.3-1.1,0.7-1.4,1.8-1L233.5,441.7z"/>
		<path class="st0" d="M224.4,441c0.1,1.4,1.2,0.9,2.1,0.7l0.5,1c-2.3,1.3-4.1,0.3-4.1-2.2c0-2.3,0-4.5,0-6.9l-1.4-0.2l-0.1-1.1
			l1.4-0.2l0.1-2.2h1.4v2.2l2,0.1v1.1l-1.9,0.1C224.4,436.1,224.3,438.6,224.4,441z"/>
		<polygon class="st0" points="219.2,432.3 219.2,443.1 217.9,443.1 217.9,432.4 		"/>
		<path class="st0" d="M218.6,428.9c0.3-0.1,0.7,0.5,1.3,0.9c-0.7,0.4-1.1,0.8-1.4,0.8c-0.3-0.1-0.6-0.5-0.9-0.8
			C217.9,429.5,218.2,429,218.6,428.9z"/>
		<path class="st0" d="M215.3,442.2c-1.7,1-3.3,1.5-5.2,0.7c-1.8-0.8-2.2-2.2-2.3-3.9c-0.1-0.9-0.1-1.8,0-2.6
			c0.1-1.7,0.6-3.2,2.3-3.9c1.7-0.6,3.6-0.4,5,0.6l-0.6,1.1c-0.5-0.2-1-0.4-1.5-0.6c-2-0.6-3.4,0.3-3.6,2.3c-0.1,1.1-0.1,2.2,0,3.2
			c0.2,2.2,1.6,3.1,3.8,2.5c0.4-0.1,0.9-0.4,1.4-0.6L215.3,442.2z"/>
		<path class="st0" d="M206.6,409.1c0-0.1,0-0.1,0-0.2c2.6,1.1,5.4,2,8.1,2.8c2.4,0.5,4.8,0.6,7.2,0.4c2.2-0.1,4-1.6,4.4-3.8
			c0.3-2.1-0.8-3.9-3.1-5c-0.6-0.3-1.3-0.5-2-0.8c-1.8-0.7-3.7-1.4-5.4-2.2c-1.3-0.6-2.6-1.3-3.8-2.1c-6.8-4.6-8-13-3-19.5
			c2.2-2.9,5.4-4.8,8.9-5.4c5.2-0.9,10.1,0.1,15.1,1.7c-0.4,3.1-0.8,6.1-1.3,9.1c-1.9-0.6-3.9-1.1-5.9-1.5c-1.9-0.3-3.9-0.3-5.8-0.1
			c-2,0.3-3.6,1.9-3.7,4c-0.3,1.8,0.6,3.7,2.3,4.5c0.9,0.5,1.9,1,2.9,1.3c3.4,1.1,6.7,2.8,9.7,4.8c8.7,6.3,6.1,18.3-1.6,22.5
			c-3.2,1.7-6.7,2.5-10.3,2.3c-4.5-0.1-8.9-1.2-13-3c-0.8-0.4-1.2-0.7-1-1.8C206,414.7,206.3,411.9,206.6,409.1z"/>
		<rect x="203.4" y="432.4" class="st0" width="1.3" height="10.7"/>
		<path class="st0" d="M204.2,428.9c0.4,0,0.7,0.4,1.3,0.8c-0.7,0.4-1.1,0.9-1.3,0.9c-0.3-0.1-0.7-0.6-1-0.9
			C203.5,429.4,203.8,428.9,204.2,428.9z"/>
		<path class="st0" d="M200,429.6c0,3.7,0,7.3,0,11c0,0.6-0.3,1.3,0.7,1.5c0.2,0,0.2,0.7,0.4,1c-1.6,0.6-2.6-0.1-2.6-1.7
			c-0.1-3,0-6,0-9l0-4h1.5V429.6z"/>
		<path class="st0" d="M189.5,374.4c6.8,2.4,9.3,8.9,8.5,15c-0.2,3.2-1.8,6.1-4.4,8c0.1,0.1,0.1,0.2,0.1,0.3c7.1,5,6.1,14.7,0.4,20
			c-2.7,2.5-6.3,4-10,4c-6.6,0.1-13.3,0-19.9,0c-0.2,0-0.4,0-0.5-0.1v-48.2h1.3c6.2,0,12.4-0.1,18.6,0
			C185.5,373.4,187.6,373.8,189.5,374.4z M187.9,408.1c0.6-3.1-1.6-5.6-5-5.7c-2.5,0-5,0-7.4,0h-1.5v9.5c3.4,0,6.8,0.1,10.1-0.1
			C186,411.6,187.5,410.1,187.9,408.1z M187.6,388c0-2.5-1.4-4.6-3.6-4.7c-3.3-0.2-6.7-0.1-10.1-0.1v9.5c3.3,0,6.5,0.1,9.7,0
			C185.9,392.6,187.5,390.5,187.6,388z"/>
		<path class="st0" d="M189.3,433c2.4-1.9,6.2-0.6,6.3,3.5c0,1.1,0,2.2-0.1,3.2c-0.4,3.2-3.3,4.6-6.1,2.9l-0.6-0.4v5l-1.4,0.1v-15.2
			L189.3,433z M191.4,442c0,0,0.1,0,0.1,0c1.3,0.1,2.4-0.9,2.5-2.2c0.1-0.6,0.1-1.3,0.1-2c0-0.6,0-1.3-0.1-2
			c-0.1-1.3-1.2-2.3-2.5-2.2c-1.3-0.1-2.4,1-2.5,2.3c0,0,0,0,0,0c-0.1,1.3-0.1,2.6,0,3.9C189.1,441,190.1,442,191.4,442z"/>
		<path class="st0" d="M177.6,433.6c0.9-0.5,1.9-1,2.9-1.3c1.6-0.4,3.2,0.6,3.6,2.3c0,0.2,0.1,0.3,0.1,0.5c0.1,2.7,0,5.3,0,8h-1.4
			c0-2.2,0-4.3,0-6.4c0-0.5,0-1-0.1-1.5c-0.2-1-1.2-1.7-2.2-1.6c-1.1,0.1-1.9,0.6-2,1.7c-0.1,1.6-0.1,3.2-0.1,4.8c0,1,0,1.9,0,3
			h-1.5v-5.8c0-0.6,0-1.2,0-1.8c-0.1-1.1-1-2-2.2-2c-1.1-0.1-2.1,0.7-2.2,1.8c0,0,0,0.1,0,0.1c-0.1,1.9-0.1,3.8-0.1,5.6
			c0,0.6,0,1.3,0,2h-1.4v-10.9l1.9,0.8C174.7,431.8,176.1,431.9,177.6,433.6z"/>
		<rect x="166.1" y="432.4" class="st0" width="1.4" height="10.6"/>
		<path class="st0" d="M166.8,428.9c0.4-0.1,0.7,0.4,1.3,0.8c-0.6,0.5-1,0.9-1.3,0.9s-0.6-0.5-0.9-0.8
			C166.2,429.5,166.5,429,166.8,428.9z"/>
		<path class="st0" d="M160.7,437.1c1.5,0.2,2.7,1.5,2.7,3c0,1.6-1.2,2.9-2.8,3.1c-1.6,0.2-3.3-0.1-4.7-0.9l0.4-1.1
			c0.6,0.2,1.2,0.4,1.9,0.5c0.8,0.2,1.6,0.2,2.3,0c0.6-0.3,1.1-0.9,1.4-1.6c0.2-0.8-0.4-1.4-1.2-1.7c-0.8-0.2-1.4-0.3-2.1-0.5
			c-1.6-0.2-2.7-1.7-2.5-3.3c0.2-1.4,1.4-2.5,2.9-2.5c1.4,0.1,2.8,0.2,4.1,0.5c-0.3,0.7-0.4,1.1-0.6,1.5c-0.7-0.2-1.4-0.4-2.1-0.6
			c-0.5-0.2-1.1-0.1-1.6,0c-0.6,0.3-1,0.9-1.2,1.5c0,0.5,0.6,1.1,1.1,1.4C159.4,436.9,160,437,160.7,437.1z"/>
		<path class="st0" d="M156.4,421.7c-3.7,0-7.2,0-10.7,0c-0.4-0.1-0.8-0.4-1-0.8c-0.6-1.2-1-2.4-1.5-3.7c-0.1-0.5-0.6-0.9-1.1-0.8
			c-5,0-10.1,0-15.1,0c-0.6-0.1-1.2,0.3-1.3,0.9c-0.4,1.2-0.9,2.4-1.4,3.6c-0.1,0.3-0.5,0.7-0.8,0.7c-3.6,0.1-7.2,0-10.9,0
			c0.2-0.5,0.2-0.8,0.4-1.1c6.8-16,13.7-32,20.6-48c0.2-0.4,0.6-0.9,0.9-0.9s0.8,0.5,0.9,0.8c6.9,16.1,13.8,32.1,20.7,48.2
			C156.2,421,156.3,421.3,156.4,421.7z M129.8,407.4h9.3c-1.5-4.1-3-8.1-4.6-12.4L129.8,407.4z"/>
		<path class="st0" d="M145.7,442.3c-0.3,0.2-0.5,0.4-0.8,0.5c-1.7,1.1-4,0.6-5.1-1.1c-0.2-0.3-0.4-0.7-0.5-1.1
			c-0.3-1.7-0.4-3.5-0.1-5.2c0.4-2.9,3.4-4,5.9-2.4l0.7,0.5v-5.1h1.4v15l-1.7-0.7L145.7,442.3z M145.7,439.9
			c0.1-0.7,0.2-1.4,0.2-2.1c0-0.8-0.1-1.5-0.2-2.3c-0.2-1.2-1.3-2.1-2.5-2c-1.2-0.1-2.3,0.8-2.4,2c-0.2,1.4-0.2,2.9,0,4.3
			c0.1,1.2,1.1,2.2,2.3,2.1c0,0,0,0,0,0C144.4,442.1,145.5,441.2,145.7,439.9z"/>
		<path class="st0" d="M135,436.7c0.1-2-0.9-3.2-2.4-3.2c-1.6,0-2.4,1.1-2.4,3.2H135z M132.6,432.2c1.8-0.1,3.4,1.2,3.8,3
			c0.1,1,0.2,1.9,0.3,2.9h-6.5c-0.5,3.4,1.2,4.4,5.5,3.2l0.5,1.1c-1.5,0.9-3.4,1.1-5.1,0.6c-1.2-0.3-2.1-1.3-2.3-2.6
			c-0.2-1.8-0.2-3.6,0-5.3C129.1,433.3,130.8,432,132.6,432.2z"/>
		<path class="st0" d="M124.1,433.7c-1.2-0.4-2.6,0.2-3,1.5c-0.1,0.2-0.1,0.4-0.1,0.6c-0.2,1.2-0.2,2.5-0.1,3.7
			c0.2,2.2,1.7,3,3.7,2.3c0.5-0.2,1-0.4,1.5-0.6l0.7,1.1c-1.7,1-3.3,1.5-5.2,0.7c-1.8-0.8-2.3-2.3-2.4-4c-0.1-1-0.1-1.9,0.1-2.9
			c0.5-3.7,4.1-5.1,7.2-2.8l-0.6,1C125.3,434.1,124.7,433.8,124.1,433.7z"/>
		<path class="st0" d="M116.4,435.5c0.2,2.5,0,5,0,7.5h-1.4c0-1.9,0-3.8,0-5.6c0-0.6,0-1.2-0.1-1.8c-0.2-1.3-1.4-2.2-2.7-2.1
			c-1,0.1-1.8,0.8-2,1.8c-0.1,1-0.2,2.1-0.1,3.1c0,1.5,0,3,0,4.6h-1.4v-10.7l1.3-0.1l0.2,0.9c0.2-0.1,0.3-0.2,0.5-0.3
			C113.2,431.3,116.1,432.5,116.4,435.5z"/>
		<polygon class="st0" points="108.3,412 108.3,421.6 82.1,421.6 82.1,373.5 92.2,373.5 92.2,412 		"/>
		<path class="st0" d="M101.2,441.9c2,0.2,3.1-1.4,2.7-4c-1,0-1.9,0-2.9,0.2c-1,0.1-1.7,1-1.6,2C99.4,441,100.2,441.9,101.2,441.9z
			 M103.9,436.7c0.4-2.9-1.1-3.6-4.8-2.5l-0.6-1.1c1.3-0.8,3-1.1,4.5-0.7c1.4,0.3,2.4,1.6,2.4,3c0.1,2.5,0,5.1,0,8l-2-0.8
			c-0.9,0.7-2.1,0.9-3.2,0.6c-1.5-0.4-2.5-1.7-2.5-3.2c-0.1-1.5,0.9-2.8,2.4-3.2c0.6-0.1,1.3-0.2,1.9-0.2
			C102.7,436.7,103.3,436.7,103.9,436.7z"/>
		<path class="st0" d="M89.7,433.5c0.7,2.5,1.5,4.9,2.5,7.3c0.8-2.4,1.6-4.8,2.2-7.2c0.3-1.1,0.8-1.5,1.9-1.1
			c-1.1,3.4-2.3,6.8-3.4,10.2c-0.1,0.3-0.6,0.5-0.9,0.5c-0.4,0-0.7-0.2-0.9-0.6c-1.2-3.4-2.3-6.7-3.4-10.1
			C88.9,432.1,89.4,432.5,89.7,433.5z"/>
		<path class="st0" d="M83.9,439.8L83.9,439.8c0.1-1.4,0.1-2.7,0-4.1c-0.1-1.3-1.2-2.2-2.4-2.2c-1.3-0.1-2.5,0.9-2.6,2.2
			c-0.1,0.7-0.1,1.3-0.1,2c0,0.7,0,1.4,0.1,2c0.1,1.3,1.3,2.3,2.6,2.2C82.8,442,83.8,441,83.9,439.8z M77.5,440.2
			c-0.2-1.5-0.2-2.9,0-4.4c0.3-3.1,3.4-4.5,6-2.8l0.7,0.4v-5h1.4v15.1l-2-0.8c-0.9,0.7-2.2,1-3.3,0.7
			C78.7,443,77.6,441.7,77.5,440.2z"/>
		<path class="st0" d="M72.9,440.3c0.1-0.8,0.2-1.6,0.2-2.4c-0.9,0-1.6,0-2.2,0c-0.3,0-0.6,0-0.9,0.1c-1.1,0.3-1.7,1.4-1.3,2.5
			c0.2,0.8,0.9,1.3,1.7,1.4C71.5,442.1,72.6,441.4,72.9,440.3z M66.9,440c-0.1-1.5,0.8-2.8,2.3-3.1c1.3-0.2,2.5-0.4,3.8-0.4
			c0.3-2.8-1.3-3.6-4.8-2.3l-0.6-1.1c1.4-0.8,3-1.1,4.5-0.7c1.4,0.3,2.4,1.6,2.4,3.1c0.1,2.5,0,5,0,7.9l-2-0.8
			c-0.9,0.7-2.2,1-3.3,0.6C67.8,442.8,66.9,441.5,66.9,440z"/>
		<path class="st0" d="M66.9,375.1c-0.4,3.1-0.9,6.2-1.3,9.2c-1.9-0.6-3.9-1.1-5.9-1.5c-1.9-0.3-3.9-0.3-5.8-0.1
			c-2,0.3-3.5,1.9-3.7,3.9c-0.4,1.9,0.5,3.8,2.3,4.6c1.3,0.7,2.8,1.1,4.2,1.8c2.9,1.3,5.8,2.7,8.5,4.4c8.8,6.1,6,18-1.2,22.2
			c-3.2,1.8-6.9,2.7-10.6,2.5c-4.4-0.1-8.8-1.1-12.9-2.9c-1-0.4-1.3-0.8-1.1-1.9c0.5-2.8,0.7-5.7,1.1-8.7c0.7,0.4,1.3,0.7,1.9,1
			c4,2.2,8.6,3.1,13.2,2.6c0.5,0,0.9-0.2,1.4-0.3c1.7-0.7,3.1-1.7,3.3-3.7c0.2-1.9-0.8-3.7-2.6-4.5c-1.2-0.6-2.5-1-3.8-1.6
			c-2.5-1-4.9-2.1-7.2-3.4c-4.6-2.7-7.2-6.6-6.7-12.2c0.6-5.9,3.6-10.1,9.1-12.3c4.4-1.8,8.9-1.3,13.4-0.3
			C63.9,374.2,65.4,374.7,66.9,375.1z"/>
		<rect x="59.9" y="544.4" class="st1" width="4.1" height="4.1"/>
		<rect x="54.4" y="245.4" class="st1" width="0" height="4.1"/>
		<rect x="50.3" y="245.4" class="st1" width="4.1" height="4.1"/>
		<path class="st0" d="M30.2,404.5c0.1,11.2-8.3,17-16.8,17.5C8.2,422.5,3,421-1,417.6c-3.4-2.7-5.4-6.8-5.4-11.2
			c-0.2-10.8-0.1-21.7-0.1-32.5c0-0.1,0.1-0.3,0.2-0.4h10v1.4c0,9.8,0,19.5,0,29.3c0,3.5,1.3,6.1,4.5,7.5c3.3,1.5,7.1,0.9,9.9-1.5
			c1.4-1.4,2.2-3.4,2.1-5.4c0-9.9,0-19.8,0-29.7v-1.4h10.1v1.3C30.2,384.8,30.1,394.6,30.2,404.5z"/>
		<path class="st0" d="M-15.7,409.9l1.4,10.2c-2.8,0.5-5.4,1.3-8.1,1.6c-5.8,0.8-11.7-0.3-16.8-3.1c-8.5-4.8-13.3-14.3-11.9-23.9
			c1.6-13.1,11.1-21.3,24.4-21.7c3.4-0.1,6.9,0.4,10.1,1.4c0.8,0.3,1.2,0.6,1,1.5c-0.4,2.9-0.7,5.8-1.1,8.6c-2-0.6-3.9-1.2-5.8-1.6
			c-2.6-0.5-5.4-0.4-7.9,0.4c-6.7,1.9-10.6,8-10.1,15.5c0.4,6.6,5.4,12.1,12,13c3.9,0.6,7.9,0.1,11.5-1.4L-15.7,409.9z"/>
		<path class="st0" d="M-52.8,373.5c-0.3,0.5-0.5,0.8-0.7,1.1c-5.4,8.1-10.9,16.3-16.3,24.4c-0.4,0.6-0.6,1.4-0.7,2.1
			c0,6.3,0,12.7,0,19.1l0,1.5h-10.1v-1.3c0-6.3,0-12.6,0-18.8c0-1-0.3-2-0.9-2.9c-5.3-7.9-10.6-15.9-15.9-23.8
			c-0.2-0.4-0.5-0.7-0.8-1.3c0.5,0,0.9-0.1,1.2-0.1c3.3,0,6.6,0,10,0c0.7-0.1,1.4,0.3,1.7,0.9c3,4.8,6,9.5,9,14.3
			c0.2,0.4,0.5,0.7,0.8,1.2c0.3-0.4,0.5-0.8,0.8-1.1c3-4.8,6-9.6,9-14.4c0.3-0.6,1-1,1.7-1c3.3,0,6.7,0,10.1,0
			C-53.6,373.5-53.3,373.5-52.8,373.5z"/>
		<polygon class="st0" points="-96.2,412 -96.2,421.6 -122.4,421.6 -122.4,373.5 -112.3,373.5 -112.3,412 		"/>
	</g>
	<g>
	</g>
</g>
</svg>
